<?xml version="1.0" encoding="UTF-8"?>
<svg version="1.1" xmlns="http://www.w3.org/2000/svg" width="199" height="185">
<path d="M0 0 C3.91027835 -0.050211 7.82042656 -0.08609395 11.73095703 -0.10986328 C13.69961157 -0.12462224 15.6681769 -0.15006161 17.63671875 -0.17578125 C31.59075511 -0.24661392 44.9027279 0.83951793 55.70703125 10.53125 C62.97702967 18.33499514 64.69988947 26.83448447 64.3828125 37.30859375 C63.49860619 45.8348689 60.58715982 53.33561042 54 59 C43.09955124 67.23373183 31.15826463 68.48136963 17.9050293 68.28125 C15.77700672 68.24946994 13.64972317 68.2402038 11.52148438 68.234375 C1.16443881 68.16443881 1.16443881 68.16443881 0 67 C-0.09417773 64.91380978 -0.11742878 62.82439523 -0.11352539 60.73608398 C-0.11367142 60.08244873 -0.11381744 59.42881348 -0.1139679 58.75537109 C-0.11326883 56.58557872 -0.10547678 54.41587121 -0.09765625 52.24609375 C-0.09579205 50.74536689 -0.09436816 49.24463943 -0.09336853 47.74391174 C-0.08954352 43.78681774 -0.0797134 39.82976022 -0.06866455 35.87268066 C-0.05845006 31.83765151 -0.05387083 27.80261647 -0.04882812 23.76757812 C-0.03809111 15.84503531 -0.0210149 7.92252219 0 0 Z M17 14 C17 26.87 17 39.74 17 53 C24.5845574 54.89613935 30.83224788 53.83546052 38 51 C42.28964187 48.3531997 44.25186917 45.71995323 46 41 C47.45046455 34.35017792 47.32205993 29.01073101 44 23 C40.41867877 17.57685643 37.30479698 15.55460747 31 14 C26.38 14 21.76 14 17 14 Z " fill="#FDFDFD" transform="translate(132,52)"/>
<path d="M0 0 C10.36343723 -0.48375111 19.17649032 2.93966907 27.81640625 8.39453125 C28.47125 8.99394531 29.12609375 9.59335937 29.80078125 10.2109375 C29.80078125 14.2109375 29.80078125 14.2109375 28.3046875 15.84375 C27.66402344 16.33617188 27.02335937 16.82859375 26.36328125 17.3359375 C23.6350784 19.39965231 23.6350784 19.39965231 21.80078125 22.2109375 C20.81078125 22.2109375 19.82078125 22.2109375 18.80078125 22.2109375 C18.24390625 21.6128125 17.68703125 21.0146875 17.11328125 20.3984375 C13.17348852 16.67160654 8.73412233 15.46155579 3.42578125 14.7734375 C-2.6657578 15.50862325 -8.87820656 17.30896006 -13.19921875 21.8984375 C-17.16314099 28.4636837 -17.9028807 34.78783899 -16.19921875 42.2109375 C-12.97181036 47.99801462 -9.57337423 52.14000935 -3.19921875 54.2109375 C-0.01450964 54.48877219 -0.01450964 54.48877219 3.30078125 54.3984375 C4.40421875 54.39199219 5.50765625 54.38554688 6.64453125 54.37890625 C9.47304208 54.22837906 12.0477068 53.85297912 14.80078125 53.2109375 C14.47078125 52.5509375 14.14078125 51.8909375 13.80078125 51.2109375 C13.70332946 49.29629644 13.67101231 47.37805108 13.67578125 45.4609375 C13.67191406 43.92179687 13.67191406 43.92179687 13.66796875 42.3515625 C13.80078125 39.2109375 13.80078125 39.2109375 14.80078125 33.2109375 C19.75078125 33.2109375 24.70078125 33.2109375 29.80078125 33.2109375 C29.80078125 42.7809375 29.80078125 52.3509375 29.80078125 62.2109375 C16.37290583 68.92487521 5.38933709 73.08761316 -9.57421875 69.0234375 C-18.82271672 65.76905605 -27.01245685 59.85159541 -31.57421875 51.0234375 C-35.48040653 42.68457576 -35.68138581 31.07829775 -33.13671875 22.2734375 C-29.0150015 12.34728356 -21.8614447 6.56017476 -12.19921875 2.2109375 C-8.14180007 0.88606609 -4.22802663 0.40553009 0 0 Z " fill="#FCFCFC" transform="translate(36.19921875,50.7890625)"/>
<path d="M0 0 C8.74505265 3.30605649 13.64651754 6.5378655 17.5625 15.125 C18.15231952 16.50039258 18.73715044 17.87793768 19.31640625 19.2578125 C22.65486389 27.14485704 28.09276936 30.73059003 35.6015625 34.203125 C56.11023096 41.8871116 78.61906226 36.38247629 97.89453125 27.9140625 C106.62032525 23.92828169 114.46724237 19.38022766 121.6875 13 C129.27909358 6.97836863 137.83557408 8.22351621 147 9 C146.16166182 13.43557107 143.75846658 15.36221299 140.375 18.125 C139.79669434 18.60364502 139.21838867 19.08229004 138.62255859 19.57543945 C112.64394964 40.68001947 81.86694463 53.83387397 48 52 C32.07334916 50.24290998 18.03904537 43.02170011 7.97265625 30.47265625 C1.92533225 21.76604389 -1.54327035 11.65339901 -1 1 C-0.67 0.67 -0.34 0.34 0 0 Z " fill="#FBCC09" transform="translate(7,123)"/>
<path d="M0 0 C0.87470947 -0.0093457 1.74941895 -0.01869141 2.65063477 -0.02832031 C17.84609273 0.04578302 32.65773542 4.93156952 43.81640625 15.50390625 C50.58405901 22.62833807 57.12031742 31.95480068 57.5625 42.125 C57.52125 42.82625 57.48 43.5275 57.4375 44.25 C56.4475 44.745 56.4475 44.745 55.4375 45.25 C47.26305609 42.08311754 41.741918 38.23101135 37.09375 30.74609375 C31.21432625 21.88535844 23.18557751 18.29329832 13.23046875 15.66796875 C-12.064953 11.88250004 -38.05032165 20.07587119 -58.8046875 34.50390625 C-60.65193623 35.87341824 -62.48412241 37.26374662 -64.29296875 38.68359375 C-66.58933025 40.26851795 -67.79197402 41.0842863 -70.5625 41.25 C-73.578125 40.25390625 -73.578125 40.25390625 -76.8125 38.8125 C-77.89015625 38.33941406 -78.9678125 37.86632813 -80.078125 37.37890625 C-80.89796875 37.00636719 -81.7178125 36.63382813 -82.5625 36.25 C-77.69352404 23.84106697 -54.86796802 14.47443621 -43.375 9.375 C-36.28468437 6.33952108 -29.06062614 4.0696672 -21.5625 2.25 C-20.71171875 2.02441406 -19.8609375 1.79882812 -18.984375 1.56640625 C-12.69663155 0.13287983 -6.4203187 0.04707225 0 0 Z " fill="#FACB07" transform="translate(133.5625,3.75)"/>
<path d="M0 0 C7.74553666 7.32604918 7.74553666 7.32604918 8.23828125 12.50390625 C8.52384841 24.2722794 4.44211769 32.12730375 -3.51953125 40.62109375 C-10.54780675 47.20475815 -19.67076482 51.51313576 -29.25 52.25 C-36.15125453 51.78991636 -41.15879624 50.38347103 -45.9375 45.1875 C-49.5930196 40.5226838 -51.26172059 36.72193406 -50.9375 30.75 C-49.31191403 19.8457885 -42.19707805 10.62105506 -33.51171875 4.14453125 C-23.53737781 -2.13790744 -10.95527122 -6.77760187 0 0 Z M-31 20 C-35.01237739 25.42213161 -36.49416562 29.20522274 -36 36 C-32.17761843 38.54825438 -30.26860001 38.28260395 -25.83203125 37.73046875 C-19.09784425 35.99351293 -13.00536521 31.84444279 -8.875 26.25 C-6.16107758 21.54586781 -5.89866639 18.37068152 -6 13 C-14.58451136 7.91288216 -24.66696186 13.66696186 -31 20 Z " fill="#FACE0F" transform="translate(120,65)"/>
<path d="M0 0 C8.74505265 3.30605649 13.64651754 6.5378655 17.5625 15.125 C18.15231952 16.50039258 18.73715044 17.87793768 19.31640625 19.2578125 C22.65486389 27.14485704 28.09276936 30.73059003 35.6015625 34.203125 C49.86791213 39.54830085 67.32121983 38.15551512 82 35 C82 35.66 82 36.32 82 37 C77.40234866 39.6913081 74.28506777 40.19943652 69 40 C67.515 40.495 67.515 40.495 66 41 C63.36373833 41.09849769 60.76067159 41.14119994 58.125 41.125 C57.37355713 41.12306641 56.62211426 41.12113281 55.84790039 41.11914062 C49.19832877 41.06842893 42.61970266 40.64470148 36 40 C34.79371992 42.33214148 33.8345262 44.49642139 33 47 C47.62835508 50.45648896 65.41027709 50.9066696 80 47 C80.99 46.34 81.98 45.68 83 45 C84.69477439 44.58578198 86.40601236 44.23569173 88.125 43.9375 C91.36108392 43.58395374 91.36108392 43.58395374 94 42 C95.99958364 41.95919217 98.00045254 41.95745644 100 42 C90.96098976 51.03901024 69.53103352 52.27069801 57.375 52.375 C40.2915499 52.19360706 24.66034549 47.58254906 12.18359375 35.43359375 C3.57989299 25.84485391 -1.66595037 14.0591243 -1 1 C-0.67 0.67 -0.34 0.34 0 0 Z " fill="#FAD327" transform="translate(7,123)"/>
<path d="M0 0 C0.85537354 -0.00555908 1.71074707 -0.01111816 2.59204102 -0.0168457 C17.68191366 0.15385091 32.42951093 5.07391676 43.50390625 15.56640625 C50.27155901 22.69083807 56.80781742 32.01730068 57.25 42.1875 C57.20875 42.88875 57.1675 43.59 57.125 44.3125 C56.135 44.8075 56.135 44.8075 55.125 45.3125 C46.96436011 42.15096538 41.41290887 38.30784212 36.796875 30.8125 C32.46095765 24.32888527 26.45604701 19.80817558 19.125 17.3125 C19.125 16.9825 19.125 16.6525 19.125 16.3125 C26.65788591 15.9420302 26.65788591 15.9420302 28.9375 17.75 C29.5253125 18.5234375 29.5253125 18.5234375 30.125 19.3125 C31.61 19.8075 31.61 19.8075 33.125 20.3125 C34.01352764 17.82462261 34.30160068 16.72877302 33.25 14.25 C32.87875 13.610625 32.5075 12.97125 32.125 12.3125 C31.63 10.8275 31.63 10.8275 31.125 9.3125 C30.135 9.1578125 30.135 9.1578125 29.125 9 C24.50463515 7.94116639 20.14277629 6.20746595 15.8137207 4.28735352 C13.07100881 3.29292433 10.94551747 3.00527978 8.04296875 2.8984375 C7.11162109 2.85976562 6.18027344 2.82109375 5.22070312 2.78125 C4.26099609 2.7503125 3.30128906 2.719375 2.3125 2.6875 C1.33345703 2.64882812 0.35441406 2.61015625 -0.65429688 2.5703125 C-3.06101374 2.47639184 -5.46773012 2.39071799 -7.875 2.3125 C-8.205 3.6325 -8.535 4.9525 -8.875 6.3125 C-9.473125 6.126875 -10.07125 5.94125 -10.6875 5.75 C-13.03908762 5.09156313 -13.03908762 5.09156313 -15.875 6.3125 C-17.174375 6.27125 -18.47375 6.23 -19.8125 6.1875 C-24.88367628 6.09605256 -29.33596351 7.33043044 -34.17578125 8.75390625 C-36.88632934 9.31484457 -38.30458557 9.23443012 -40.875 8.3125 C-27.39584337 2.9840209 -14.51286105 0.07836457 0 0 Z " fill="#FACD0F" transform="translate(133.875,3.6875)"/>
<path d="M0 0 C-0.99 0.33 -1.98 0.66 -3 1 C-3 2.32 -3 3.64 -3 5 C-4.32 5.33 -5.64 5.66 -7 6 C-7 5.34 -7 4.68 -7 4 C-7.66 4 -8.32 4 -9 4 C-9.33 5.65 -9.66 7.3 -10 9 C-8.02 9 -6.04 9 -4 9 C-5.98 9.99 -5.98 9.99 -8 11 C-8 11.33 -8 11.66 -8 12 C-4.535 11.505 -4.535 11.505 -1 11 C-1 9.02 -1 7.04 -1 5 C0.32 4.34 1.64 3.68 3 3 C3.66 3.66 4.32 4.32 5 5 C5.66 4.67 6.32 4.34 7 4 C7 4.66 7 5.32 7 6 C10.58249345 5.57853018 14.13872949 5.1583586 17.6875 4.50585938 C27.11637538 2.81774692 36.27679982 2.76795942 45.8125 2.875 C47.39127029 2.88506103 48.97004687 2.8941813 50.54882812 2.90234375 C54.36604453 2.92408436 58.18295009 2.95843735 62 3 C61.34 3.99 60.68 4.98 60 6 C58.08767578 5.76023437 58.08767578 5.76023437 56.13671875 5.515625 C26.92537757 2.29592666 -0.62490509 10.29696851 -23.73046875 28.43359375 C-26.02683025 30.01851795 -27.22947402 30.8342863 -30 31 C-33.015625 30.00390625 -33.015625 30.00390625 -36.25 28.5625 C-37.32765625 28.08941406 -38.4053125 27.61632812 -39.515625 27.12890625 C-40.33546875 26.75636719 -41.1553125 26.38382813 -42 26 C-37.84916298 15.42129536 -20.46574009 8.20435233 -11 3 C-10.27748047 2.59861816 -9.55496094 2.19723633 -8.81054688 1.78369141 C-8.10478516 1.40776855 -7.39902344 1.0318457 -6.671875 0.64453125 C-6.03862305 0.30397705 -5.40537109 -0.03657715 -4.75292969 -0.38745117 C-3 -1 -3 -1 0 0 Z " fill="#F8CD0E" transform="translate(93,14)"/>
<path d="M0 0 C-0.83833818 4.43557107 -3.24153342 6.36221299 -6.625 9.125 C-7.20330566 9.60364502 -7.78161133 10.08229004 -8.37744141 10.57543945 C-17.38627238 17.8940605 -27.07800266 24.11605904 -37.25 29.6875 C-37.88212402 30.03901123 -38.51424805 30.39052246 -39.16552734 30.75268555 C-40.73604361 31.58427412 -42.36561961 32.30224529 -44 33 C-45.485 32.505 -45.485 32.505 -47 32 C-45.8803014 30.99406757 -44.7540588 29.9954151 -43.625 29 C-42.99851562 28.443125 -42.37203125 27.88625 -41.7265625 27.3125 C-40 26 -40 26 -38 26 C-38.495 23.525 -38.495 23.525 -39 21 C-44.70445284 19.16642587 -48.70557664 21.63641814 -54 24 C-54.66 24.391875 -55.32 24.78375 -56 25.1875 C-58.99077231 26.40250125 -61.81426544 26.12252825 -65 26 C-62.20359573 24.13573048 -59.51858474 22.96046653 -56.40307617 21.74267578 C-44.94969742 17.25724238 -34.60335499 12.20992449 -25.3125 4 C-17.72090642 -2.02163137 -9.16442592 -0.77648379 0 0 Z " fill="#FACD0E" transform="translate(154,132)"/>
<path d="M0 0 C0.99 0 1.98 0 3 0 C4 3 4 3 4 5 C4.33 5.99 4.66 6.98 5 8 C4.35050775 10.33817209 3.68255989 12.67126625 3 15 C2.83071457 17.79244045 2.83071457 17.79244045 3 20 C3.33 19.67 3.66 19.34 4 19 C4.66 19.33 5.32 19.66 6 20 C7.76770327 20.12240135 9.54060462 20.17551153 11.3125 20.1875 C12.72982422 20.20876953 12.72982422 20.20876953 14.17578125 20.23046875 C17.1560836 19.98726289 19.26533494 19.15891166 22 18 C22.99 18 23.98 18 25 18 C25 17.34 25 16.68 25 16 C27.31 15.34 29.62 14.68 32 14 C32 13.01 32 12.02 32 11 C33.65 11 35.3 11 37 11 C36.505 8.03 36.505 8.03 36 5 C36.495 6.485 36.495 6.485 37 8 C38.32 7.34 39.64 6.68 41 6 C42.32 6.99 43.64 7.98 45 9 C40.375 13.875 40.375 13.875 37 15 C36.855625 15.763125 36.71125 16.52625 36.5625 17.3125 C36 20 36 20 35 23 C30.78206754 25.06761395 26.47949133 26.57967348 22 28 C22 28.66 22 29.32 22 30 C16.61812175 32.69093912 7.48590341 31.67162364 1.75 30.125 C-1.1850881 28.92428214 -2.51747413 28.04694832 -3.8515625 25.15234375 C-6.23670456 18.32216421 -6.76901498 12.58873655 -5.25 5.5 C-4 3 -4 3 -1.875 2.125 C-1.25625 2.08375 -0.6375 2.0425 0 2 C0 1.34 0 0.68 0 0 Z " fill="#FACB06" transform="translate(78,84)"/>
<path d="M0 0 C0.33 1.32 0.66 2.64 1 4 C0.01 4 -0.98 4 -2 4 C-2 4.66 -2 5.32 -2 6 C-0.68 5.67 0.64 5.34 2 5 C1.34 6.32 0.68 7.64 0 9 C0.55461914 8.96447021 1.10923828 8.92894043 1.68066406 8.89233398 C4.20342273 8.73433185 6.72665461 8.58582437 9.25 8.4375 C10.12269531 8.38142578 10.99539062 8.32535156 11.89453125 8.26757812 C12.73886719 8.21923828 13.58320312 8.17089844 14.453125 8.12109375 C15.22817383 8.0739624 16.00322266 8.02683105 16.80175781 7.97827148 C19 8 19 8 23 9 C23 12.96 23 16.92 23 21 C22.34 21 21.68 21 21 21 C20.814375 22.299375 20.814375 22.299375 20.625 23.625 C20.01941879 26.89513853 19.11693965 29.87256899 18 33 C15.69 33 13.38 33 11 33 C11 33.66 11 34.32 11 35 C3.5066839 38.39319974 -3.98564887 39.32191481 -12 37 C-12.19388736 32.15281607 -11.68831526 28.53734727 -10 24 C-10 23.34 -10 22.68 -10 22 C-10.66 21.67 -11.32 21.34 -12 21 C-11.67 19.68 -11.34 18.36 -11 17 C-11.99 17 -12.98 17 -14 17 C-14 17.66 -14 18.32 -14 19 C-15.32 19.33 -16.64 19.66 -18 20 C-19.44332205 27.03619501 -19.92959714 33.35957982 -17 40 C-17.33 40.99 -17.66 41.98 -18 43 C-21.79863223 38.22107558 -23.38736683 34.16881678 -23 28 C-20.46380486 16.43695241 -13.17792215 8.08915366 -4 1 C-2 0 -2 0 0 0 Z M-3 18 C-7.01237739 23.42213161 -8.49416562 27.20522274 -8 34 C-4.17761843 36.54825438 -2.26860001 36.28260395 2.16796875 35.73046875 C8.90215575 33.99351293 14.99463479 29.84444279 19.125 24.25 C21.83892242 19.54586781 22.10133361 16.37068152 22 11 C13.41548864 5.91288216 3.33303814 11.66696186 -3 18 Z " fill="#FAD012" transform="translate(92,67)"/>
<path d="M0 0 C1.98 0.66 3.96 1.32 6 2 C6 2.66 6 3.32 6 4 C7.32 4 8.64 4 10 4 C10 4.66 10 5.32 10 6 C14.74648568 6.05010501 19.49281143 6.08604647 24.23950195 6.10986328 C25.84825325 6.11981068 27.45698702 6.13337343 29.06567383 6.15087891 C38.94166922 6.25551706 48.27339055 5.91488238 58 4 C58 4.66 58 5.32 58 6 C53.40234866 8.6913081 50.28506777 9.19943652 45 9 C44.01 9.33 43.02 9.66 42 10 C39.36373833 10.09849769 36.76067159 10.14119994 34.125 10.125 C33.37355713 10.12306641 32.62211426 10.12113281 31.84790039 10.11914062 C25.19832877 10.06842893 18.61970266 9.64470148 12 9 C10.79371992 11.33214148 9.8345262 13.49642139 9 16 C23.62835508 19.45648896 41.41027709 19.9066696 56 16 C56.99 15.34 57.98 14.68 59 14 C60.69477439 13.58578198 62.40601236 13.23569173 64.125 12.9375 C67.36108392 12.58395374 67.36108392 12.58395374 70 11 C71.99958364 10.95919217 74.00045254 10.95745644 76 11 C66.96098976 20.03901024 45.53103352 21.27069801 33.375 21.375 C19.86625542 21.23156347 7.40084467 18.4878429 -4 11 C-5.390625 8.77734375 -5.390625 8.77734375 -6 7 C-3.525 7.495 -3.525 7.495 -1 8 C-1.020625 6.865625 -1.04125 5.73125 -1.0625 4.5625 C-1 1 -1 1 0 0 Z " fill="#FACE0D" transform="translate(31,154)"/>
<path d="M0 0 C4.98438325 0.47470317 8.25992441 1.60783842 12 5 C12.57739662 7.04441175 12.74863778 8.91232232 12.86328125 11.03125 C13.04449527 13.6407319 13.80785879 15.68584353 15 18 C15.66 18.33 16.32 18.66 17 19 C16.9071875 20.175625 16.9071875 20.175625 16.8125 21.375 C16.874375 22.24125 16.93625 23.1075 17 24 C17.99 24.66 18.98 25.32 20 26 C19.34 27.32 18.68 28.64 18 30 C17.34 30 16.68 30 16 30 C15.67 30.66 15.34 31.32 15 32 C12.68556788 30.10637372 11.99699831 28.98992288 11.125 26.0625 C9.78168888 22.40570862 8.07968463 21.2692413 5 19 C5 18.34 5 17.68 5 17 C4.34 17 3.68 17 3 17 C1.1582605 11.35199888 0.45224761 5.91492272 0 0 Z " fill="#F9CC0C" transform="translate(8,127)"/>
<path d="M0 0 C0.85537354 -0.00555908 1.71074707 -0.01111816 2.59204102 -0.0168457 C15.38518003 0.12787027 27.79223793 3.56292845 38.125 11.3125 C35.24882735 11.3125 33.61178142 10.92298208 30.9375 10 C30.14472656 9.72671875 29.35195312 9.4534375 28.53515625 9.171875 C19.82492889 6.06612132 19.82492889 6.06612132 15.82250977 4.29174805 C13.0751295 3.29439605 10.95056848 3.00546571 8.04296875 2.8984375 C7.11162109 2.85976562 6.18027344 2.82109375 5.22070312 2.78125 C4.26099609 2.7503125 3.30128906 2.719375 2.3125 2.6875 C1.33345703 2.64882812 0.35441406 2.61015625 -0.65429688 2.5703125 C-3.06101374 2.47639184 -5.46773012 2.39071799 -7.875 2.3125 C-8.205 3.6325 -8.535 4.9525 -8.875 6.3125 C-9.473125 6.126875 -10.07125 5.94125 -10.6875 5.75 C-13.03908762 5.09156313 -13.03908762 5.09156313 -15.875 6.3125 C-17.174375 6.27125 -18.47375 6.23 -19.8125 6.1875 C-24.88367628 6.09605256 -29.33596351 7.33043044 -34.17578125 8.75390625 C-36.88632934 9.31484457 -38.30458557 9.23443012 -40.875 8.3125 C-27.39584337 2.9840209 -14.51286105 0.07836457 0 0 Z " fill="#FAEDB0" transform="translate(133.875,3.6875)"/>
<path d="M0 0 C-0.83542912 4.62685008 -3.60742933 6.59886952 -7.125 9.4375 C-7.7130542 9.92323486 -8.3011084 10.40896973 -8.90698242 10.90942383 C-12.82047235 14.11745926 -16.80300812 17.16947059 -21 20 C-21.66 19.67 -22.32 19.34 -23 19 C-21.6875 16.0625 -21.6875 16.0625 -20 13 C-19.01 12.67 -18.02 12.34 -17 12 C-16.67 10.35 -16.34 8.7 -16 7 C-14.02 7 -12.04 7 -10 7 C-9.67 6.34 -9.34 5.68 -9 5 C-8.01 5 -7.02 5 -6 5 C-6 4.34 -6 3.68 -6 3 C-14.49380475 3.33541987 -14.49380475 3.33541987 -22 7 C-22.99 7 -23.98 7 -25 7 C-25 7.66 -25 8.32 -25 9 C-26.98 9.33 -28.96 9.66 -31 10 C-29.72102277 8.61444134 -28.36707204 7.29871844 -27 6 C-26.54496094 5.47148437 -26.08992188 4.94296875 -25.62109375 4.3984375 C-18.72783813 -2.35087542 -8.92934163 -0.48607303 0 0 Z " fill="#F2D65A" transform="translate(154,132)"/>
<path d="M0 0 C0.66 0.99 1.32 1.98 2 3 C1.125 6.1875 1.125 6.1875 0 9 C-0.67546875 9.04898438 -1.3509375 9.09796875 -2.046875 9.1484375 C-3.38492188 9.26058594 -3.38492188 9.26058594 -4.75 9.375 C-6.07257813 9.47941406 -6.07257813 9.47941406 -7.421875 9.5859375 C-10.01435479 10.00230547 -11.68403851 10.82303597 -14 12 C-16.33203812 12.0777346 -18.66839059 12.08967728 -21 12 C-20.67 10.68 -20.34 9.36 -20 8 C-20.66 8 -21.32 8 -22 8 C-22 6 -22 6 -20 4 C-16.875 3.875 -16.875 3.875 -14 4 C-14 3.34 -14 2.68 -14 2 C-4.71517672 -0.56133056 -4.71517672 -0.56133056 0 0 Z " fill="#FBCB06" transform="translate(112,65)"/>
<path d="M0 0 C5.02193219 0.73029894 8.51466124 2.91674231 12.79296875 5.52734375 C20.44282363 9.0401273 28.51034712 9.33345344 36.8125 9.25 C37.76938721 9.24468262 38.72627441 9.23936523 39.7121582 9.23388672 C52.43891522 9.34683247 52.43891522 9.34683247 64 5 C65.69477439 4.58578198 67.40601236 4.23569173 69.125 3.9375 C72.36108392 3.58395374 72.36108392 3.58395374 75 2 C76.99958364 1.95919217 79.00045254 1.95745644 81 2 C71.96098976 11.03901024 50.53103352 12.27069801 38.375 12.375 C24.60080963 12.22874495 12.78655874 9.16167186 1 2 C0.67 1.34 0.34 0.68 0 0 Z " fill="#FBEEA1" transform="translate(26,163)"/>
<path d="M0 0 C2.25 0.9375 2.25 0.9375 4.25 3.9375 C4.25 5.2575 4.25 6.5775 4.25 7.9375 C1.9375 9.5 1.9375 9.5 -0.75 10.9375 C-1.245 11.494375 -1.74 12.05125 -2.25 12.625 C-3.75 13.9375 -3.75 13.9375 -6.0625 14.375 C-9.72958527 13.77803263 -11.89205758 12.26373221 -14.75 9.9375 C-14.75 8.9475 -14.75 7.9575 -14.75 6.9375 C-13.88375 6.525 -13.0175 6.1125 -12.125 5.6875 C-8.69835181 4.02110372 -8.69835181 4.02110372 -5.6875 1.6875 C-2.75 -0.0625 -2.75 -0.0625 0 0 Z " fill="#FACA07" transform="translate(69.75,29.0625)"/>
<path d="M0 0 C1.51400391 0.01740234 1.51400391 0.01740234 3.05859375 0.03515625 C4.07050781 0.04417969 5.08242187 0.05320313 6.125 0.0625 C7.29869141 0.07990234 7.29869141 0.07990234 8.49609375 0.09765625 C8.49609375 0.75765625 8.49609375 1.41765625 8.49609375 2.09765625 C7.50609375 2.09765625 6.51609375 2.09765625 5.49609375 2.09765625 C5.16609375 3.08765625 4.83609375 4.07765625 4.49609375 5.09765625 C1.52609375 4.60265625 1.52609375 4.60265625 -1.50390625 4.09765625 C-1.50390625 5.74765625 -1.50390625 7.39765625 -1.50390625 9.09765625 C-2.82390625 9.42765625 -4.14390625 9.75765625 -5.50390625 10.09765625 C-5.83390625 11.74765625 -6.16390625 13.39765625 -6.50390625 15.09765625 C-7.82390625 15.42765625 -9.14390625 15.75765625 -10.50390625 16.09765625 C-10.83390625 15.10765625 -11.16390625 14.11765625 -11.50390625 13.09765625 C-12.49390625 13.09765625 -13.48390625 13.09765625 -14.50390625 13.09765625 C-14.50390625 12.43765625 -14.50390625 11.77765625 -14.50390625 11.09765625 C-15.16390625 10.76765625 -15.82390625 10.43765625 -16.50390625 10.09765625 C-16.17390625 9.43765625 -15.84390625 8.77765625 -15.50390625 8.09765625 C-12.53390625 8.59265625 -12.53390625 8.59265625 -9.50390625 9.09765625 C-8.84390625 8.10765625 -8.18390625 7.11765625 -7.50390625 6.09765625 C-8.16390625 6.09765625 -8.82390625 6.09765625 -9.50390625 6.09765625 C-9.50390625 5.43765625 -9.50390625 4.77765625 -9.50390625 4.09765625 C-8.04984375 3.38609375 -8.04984375 3.38609375 -6.56640625 2.66015625 C-1.46444679 0.05711571 -1.46444679 0.05711571 0 0 Z " fill="#FACC05" transform="translate(139.50390625,134.90234375)"/>
<path d="M0 0 C0.99 0.33 1.98 0.66 3 1 C2.2575 1.53625 1.515 2.0725 0.75 2.625 C-3.01880169 5.87987419 -5.42402056 9.27206167 -7 14 C-7.03954234 16.33299825 -7.04401732 18.66708189 -7 21 C-3.2257906 22.8871047 1.01027466 21.95344788 5 21 C7.57953987 19.59934486 9.85126393 18.05038005 12.1875 16.27734375 C14 15 14 15 16 15 C16.268125 14.401875 16.53625 13.80375 16.8125 13.1875 C17.98493467 11.02775192 19.19369282 9.64209744 21 8 C20.40075776 12.19469571 19.42500059 16.00999834 18 20 C15.69 20 13.38 20 11 20 C11 20.66 11 21.32 11 22 C4.57765103 24.9082335 -0.95576882 25.64376102 -8 25 C-9.70336001 23.29663999 -9.17182498 21.13553774 -9.1875 18.8125 C-9.10952899 12.78534066 -8.66875548 8.83563103 -4.5 4.25 C-3.675 3.5075 -2.85 2.765 -2 2 C-1.34 1.34 -0.68 0.68 0 0 Z " fill="#FAEA82" transform="translate(92,80)"/>
<path d="M0 0 C4.455 0.99 4.455 0.99 9 2 C8.67 2.66 8.34 3.32 8 4 C7.01 4 6.02 4 5 4 C4.7018576 7.7763932 4.7018576 7.7763932 6 10 C9.96 10 13.92 10 18 10 C16 12 16 12 12.98828125 12.265625 C-2.80149413 12.19850587 -2.80149413 12.19850587 -7 8 C-7.625 5.375 -7.625 5.375 -8 3 C-5.525 3.99 -5.525 3.99 -3 5 C-2.67 4.01 -2.34 3.02 -2 2 C-1.34 2 -0.68 2 0 2 C0 1.34 0 0.68 0 0 Z " fill="#FBCE12" transform="translate(82,103)"/>
<path d="M0 0 C0 4.26710506 -1.94748023 5.80301263 -4.75 8.87109375 C-12.33123615 16.04431198 -21.29198056 20.43152378 -31.6875 21.3125 C-35.38444222 20.96373187 -38.47659391 20.15049995 -42 19 C-37.90996141 17.85017398 -33.96822949 17.88905744 -29.75 17.9375 C-29.00492188 17.94201172 -28.25984375 17.94652344 -27.4921875 17.95117188 C-25.6614236 17.96290754 -23.83070127 17.9808415 -22 18 C-22 17.34 -22 16.68 -22 16 C-13.738041 11.59225513 -13.738041 11.59225513 -9 11 C-9 10.01 -9 9.02 -9 8 C-8.01 7.67 -7.02 7.34 -6 7 C-4.98133771 5.34467377 -3.98189187 3.67739862 -3 2 C-2.01 1.34 -1.02 0.68 0 0 Z " fill="#FCF2C1" transform="translate(122,96)"/>
<path d="M0 0 C1.59244651 0.00502605 3.18489455 0.009587 4.77734375 0.01367188 C8.64326779 0.02458763 12.50911653 0.04179105 16.375 0.0625 C15.715 1.0525 15.055 2.0425 14.375 3.0625 C13.10011719 2.90265625 11.82523438 2.7428125 10.51171875 2.578125 C-3.12992703 1.07453145 -16.36102725 1.49410838 -29.625 5.0625 C-31.41472391 5.46702664 -33.20618394 5.8640241 -35 6.25 C-36.19625 6.518125 -37.3925 6.78625 -38.625 7.0625 C-36.49631956 3.86947935 -36.05880203 3.55348566 -32.625 2.4375 C-31.573125 2.07785156 -31.573125 2.07785156 -30.5 1.7109375 C-20.50420282 -0.54354936 -10.18402206 -0.05621258 0 0 Z " fill="#FCF6E3" transform="translate(138.625,16.9375)"/>
<path d="M0 0 C0 0.66 0 1.32 0 2 C-4.59765134 4.6913081 -7.71493223 5.19943652 -13 5 C-13.99 5.33 -14.98 5.66 -16 6 C-17.33525717 6.07973476 -18.67412083 6.10771338 -20.01171875 6.09765625 C-21.14770508 6.09282227 -21.14770508 6.09282227 -22.30664062 6.08789062 C-23.09232422 6.07951172 -23.87800781 6.07113281 -24.6875 6.0625 C-25.48478516 6.05798828 -26.28207031 6.05347656 -27.10351562 6.04882812 C-29.06904257 6.0370585 -31.03453085 6.01912348 -33 6 C-33 5.67 -33 5.34 -33 5 C-35.64 4.34 -38.28 3.68 -41 3 C-41 2.67 -41 2.34 -41 2 C-39.80624756 2.01571045 -39.80624756 2.01571045 -38.58837891 2.03173828 C-34.93395223 2.07366997 -31.27957643 2.09944352 -27.625 2.125 C-26.37332031 2.14175781 -25.12164062 2.15851563 -23.83203125 2.17578125 C-17.32866078 2.20983031 -11.30027742 1.96800373 -4.96630859 0.43310547 C-3 0 -3 0 0 0 Z " fill="#FBE88E" transform="translate(89,158)"/>
<path d="M0 0 C-0.33 0.99 -0.66 1.98 -1 3 C-1 2.34 -1 1.68 -1 1 C-2.299375 1.144375 -3.59875 1.28875 -4.9375 1.4375 C-5.66839844 1.51871094 -6.39929688 1.59992188 -7.15234375 1.68359375 C-9.01140229 1.81886614 -9.01140229 1.81886614 -10 3 C-11.0725 3.12375 -12.145 3.2475 -13.25 3.375 C-16.97497967 3.99582994 -18.87821206 5.00552437 -22 7 C-22.99 7 -23.98 7 -25 7 C-25 7.66 -25 8.32 -25 9 C-26.98 9.33 -28.96 9.66 -31 10 C-29.72102277 8.61444134 -28.36707204 7.29871844 -27 6 C-26.54496094 5.47148437 -26.08992188 4.94296875 -25.62109375 4.3984375 C-18.72783813 -2.35087542 -8.92934163 -0.48607303 0 0 Z " fill="#F9E48B" transform="translate(154,132)"/>
<path d="M0 0 C7.97530423 3.25401879 13.11568609 5.73892583 16.875 13.8125 C18.2421875 17.20703125 18.2421875 17.20703125 19 20 C18.67 20.66 18.34 21.32 18 22 C13.08170515 15.69449378 13.08170515 15.69449378 12.625 11.8125 C12.29908647 8.99743167 12.29908647 8.99743167 10.53515625 7.7734375 C7.42942251 5.94808025 4.52038385 4.78489794 1 4 C1.144375 4.66386719 1.28875 5.32773438 1.4375 6.01171875 C1.623125 6.89472656 1.80875 7.77773437 2 8.6875 C2.185625 9.55761719 2.37125 10.42773438 2.5625 11.32421875 C2.98972047 13.93712964 3.07616201 16.35813038 3 19 C-0.67790342 13.48314488 -1.39953612 7.52575668 -1 1 C-0.67 0.67 -0.34 0.34 0 0 Z " fill="#FAF2C8" transform="translate(7,123)"/>
<path d="M0 0 C0.99 0 1.98 0 3 0 C3 0.66 3 1.32 3 2 C4.670625 1.9690625 4.670625 1.9690625 6.375 1.9375 C10 2 10 2 12 3 C13.5195764 3.15123831 15.04472502 3.24881693 16.5703125 3.31640625 C17.91416016 3.37924805 17.91416016 3.37924805 19.28515625 3.44335938 C20.22230469 3.48267578 21.15945312 3.52199219 22.125 3.5625 C23.54232422 3.62727539 23.54232422 3.62727539 24.98828125 3.69335938 C27.32537092 3.79959072 29.6625683 3.90163176 32 4 C32 4.33 32 4.66 32 5 C23.09 5 14.18 5 5 5 C4.34 6.32 3.68 7.64 3 9 C-0.875 7.25 -0.875 7.25 -2 5 C-1.34 4.67 -0.68 4.34 0 4 C-0.33 3.34 -0.66 2.68 -1 2 C-0.67 1.34 -0.34 0.68 0 0 Z " fill="#FACC08" transform="translate(38,158)"/>
<path d="M0 0 C0.29648438 0.59554687 0.59296875 1.19109375 0.8984375 1.8046875 C1.7921618 3.58579764 2.70563425 5.35698895 3.625 7.125 C5 10 5 10 5 12 C0.31479085 10.78184562 -3.70543612 9.30440013 -8 7 C-8 6.34 -8 5.68 -8 5 C-6.25 3.7109375 -6.25 3.7109375 -4 2.375 C-3.2575 1.92898437 -2.515 1.48296875 -1.75 1.0234375 C-1.1725 0.68570313 -0.595 0.34796875 0 0 Z " fill="#F6D124" transform="translate(185,34)"/>
<path d="M0 0 C0.66 0.33 1.32 0.66 2 1 C1.01 1.33 0.02 1.66 -1 2 C-1 2.66 -1 3.32 -1 4 C-1.66 4 -2.32 4 -3 4 C-3 4.66 -3 5.32 -3 6 C-6.77125039 10.02266709 -10.31674574 10.58309931 -15.51171875 11.4296875 C-17.98860055 11.99738725 -19.56943819 12.75758312 -21.6875 14.125 C-25.45761017 16.25902463 -27.73910918 16.34782782 -32 16 C-28.53740156 13.69160104 -24.91206756 12.32190363 -21.0625 10.8125 C-14.34988898 8.13805031 -8.32347185 5.08128052 -2.22265625 1.1875 C-1.48917969 0.795625 -0.75570312 0.40375 0 0 Z " fill="#F9E483" transform="translate(121,142)"/>
<path d="M0 0 C0.66 0.33 1.32 0.66 2 1 C-7.0625 10.32142857 -7.0625 10.32142857 -13 11 C-13 11.99 -13 12.98 -13 14 C-11.7934375 14.433125 -11.7934375 14.433125 -10.5625 14.875 C-8 16 -8 16 -7 18 C-11.455 17.01 -11.455 17.01 -16 16 C-16 12 -16 12 -14.0234375 10 C-13.14945313 9.34 -12.27546875 8.68 -11.375 8 C-10.4675 7.3090625 -9.56 6.618125 -8.625 5.90625 C-5.7943621 3.85066772 -2.95742995 1.86785049 0 0 Z " fill="#FAE690" transform="translate(68,25)"/>
<path d="M0 0 C-0.33 0.99 -0.66 1.98 -1 3 C-1.598125 2.814375 -2.19625 2.62875 -2.8125 2.4375 C-5.16408762 1.77906313 -5.16408762 1.77906313 -8 3 C-9.299375 2.95875 -10.59875 2.9175 -11.9375 2.875 C-17.00867628 2.78355256 -21.46096351 4.01793044 -26.30078125 5.44140625 C-29.01132934 6.00234457 -30.42958557 5.92193012 -33 5 C-21.81028473 -0.11112606 -12.1679533 -0.58375042 0 0 Z " fill="#F8D125" transform="translate(126,7)"/>
<path d="M0 0 C0.33 0.66 0.66 1.32 1 2 C1.66 2 2.32 2 3 2 C3 2.66 3 3.32 3 4 C4.98 4.66 6.96 5.32 9 6 C9.144375 6.9075 9.28875 7.815 9.4375 8.75 C9.86409473 11.21476956 10.35074221 13.58847107 11 16 C11.66 16 12.32 16 13 16 C14.625 18.5 14.625 18.5 16 21 C8.60531446 17.88036704 3.37918332 10.03996526 0 3 C0 2.01 0 1.02 0 0 Z " fill="#FAE781" transform="translate(10,142)"/>
<path d="M0 0 C0.99 0.66 1.98 1.32 3 2 C3.66 1.67 4.32 1.34 5 1 C5 1.66 5 2.32 5 3 C5.66 3 6.32 3 7 3 C6.5625 5.3125 6.5625 5.3125 5 8 C2.09244107 9.36075884 -0.89287788 10.21362959 -4 11 C-3.91291331 9.54054712 -3.80473093 8.08234132 -3.6875 6.625 C-3.62949219 5.81289063 -3.57148437 5.00078125 -3.51171875 4.1640625 C-3 2 -3 2 0 0 Z " fill="#FBCE11" transform="translate(95,17)"/>
<path d="M0 0 C0.33 0 0.66 0 1 0 C0.835 1.299375 0.67 2.59875 0.5 3.9375 C-0.2413135 10.75973296 -0.81677809 16.615303 2 23 C1.67 23.99 1.34 24.98 1 26 C-2.77543177 21.25026326 -4.44694558 17.1431243 -4 11 C-2.94528383 7.20302178 -1.57249652 3.61066798 0 0 Z " fill="#FBF2BD" transform="translate(73,84)"/>
<path d="M0 0 C3.28435133 2.42004835 5.51646345 4.1765217 7 8 C7.97881992 15.8647042 6.88872023 22.12529816 3 29 C2.67 28.34 2.34 27.68 2 27 C2.29648438 26.26394531 2.59296875 25.52789062 2.8984375 24.76953125 C4.13853581 21.65169543 4.40479463 19.0272814 4.625 15.6875 C4.69976562 14.61886719 4.77453125 13.55023438 4.8515625 12.44921875 C4.90054688 11.64097656 4.94953125 10.83273438 5 10 C4.34 10 3.68 10 3 10 C2.690625 8.906875 2.38125 7.81375 2.0625 6.6875 C1.41662103 4.44592006 0.7376883 2.2130649 0 0 Z " fill="#FAEDB4" transform="translate(121,67)"/>
<path d="M0 0 C0 0.66 0 1.32 0 2 C1.918125 2.185625 1.918125 2.185625 3.875 2.375 C7.75 2.75 7.75 2.75 10 5 C8.31419953 7.12943217 7.3926018 7.92572398 4.6875 8.4375 C1.02041473 7.84053263 -1.14205758 6.32623221 -4 4 C-4 3.01 -4 2.02 -4 1 C-2 0 -2 0 0 0 Z " fill="#F9CC10" transform="translate(59,35)"/>
<path d="M0 0 C0.98052284 2.64741166 1.05565835 3.82446211 0.1875 6.5625 C-1 9 -1 9 -3 12 C-6.125 12.1875 -6.125 12.1875 -9 12 C-9 12.66 -9 13.32 -9 14 C-10.98 14 -12.96 14 -15 14 C-13.33784732 12.66104368 -11.67036393 11.32869858 -10 10 C-9.278125 9.4225 -8.55625 8.845 -7.8125 8.25 C-6 7 -6 7 -4 7 C-3.71125 6.401875 -3.4225 5.80375 -3.125 5.1875 C-2 3 -2 3 0 0 Z " fill="#FBE882" transform="translate(112,88)"/>
<path d="M0 0 C0.33 0.66 0.66 1.32 1 2 C-1.97 1.505 -1.97 1.505 -5 1 C-5 0.34 -5 -0.32 -5 -1 C-7.81316358 -0.69272975 -10.62542519 -0.37944848 -13.4375 -0.0625 C-14.64116211 0.06801758 -14.64116211 0.06801758 -15.86914062 0.20117188 C-19.75576664 0.30548394 -19.75576664 0.30548394 -23 2 C-24.66617115 2.04063832 -26.33388095 2.042721 -28 2 C-19.91209268 -5.11735844 -9.13138054 -4.23956953 0 0 Z " fill="#F8EEB7" transform="translate(120,65)"/>
<path d="M0 0 C4.455 0.99 4.455 0.99 9 2 C9 2.33 9 2.66 9 3 C13.95 3.33 18.9 3.66 24 4 C24 4.33 24 4.66 24 5 C8.655 5.495 8.655 5.495 -7 6 C-7 5.67 -7 5.34 -7 5 C-5.02 4.67 -3.04 4.34 -1 4 C-0.67 2.68 -0.34 1.36 0 0 Z " fill="#F8D435" transform="translate(120,12)"/>
<path d="M0 0 C-15.11731844 9.49441341 -15.11731844 9.49441341 -21 12 C-21.99 11.67 -22.98 11.34 -24 11 C-21.75421292 8.75421292 -19.930208 8.14349581 -17 7 C-16.01 6.34 -15.02 5.68 -14 5 C-12.68 5 -11.36 5 -10 5 C-10 4.34 -10 3.68 -10 3 C-3.375 -1.125 -3.375 -1.125 0 0 Z " fill="#FCEFA9" transform="translate(131,153)"/>
<path d="M0 0 C0 0.66 0 1.32 0 2 C-0.99 2.33 -1.98 2.66 -3 3 C-5.3300037 6.21717354 -5.3300037 6.21717354 -6 10 C-7.051875 10.226875 -8.10375 10.45375 -9.1875 10.6875 C-13.1597906 11.79360531 -15.29599637 13.88629885 -18 17 C-15.21301967 10.89583332 -7.42122137 0 0 0 Z " fill="#FBE995" transform="translate(92,67)"/>
<path d="M0 0 C0 0.66 0 1.32 0 2 C2.97 2.495 2.97 2.495 6 3 C6 3.66 6 4.32 6 5 C2.26512223 4.5020163 0.18762365 4.12508244 -3 2 C-6.43988753 1.97682362 -6.43988753 1.97682362 -10.1875 2.375 C-11.45980469 2.48585938 -12.73210937 2.59671875 -14.04296875 2.7109375 C-15.50669922 2.85402344 -15.50669922 2.85402344 -17 3 C-17 3.66 -17 4.32 -17 5 C-18.98 5 -20.96 5 -23 5 C-23 4.34 -23 3.68 -23 3 C-15.17683695 0.70629774 -8.15475474 -0.433422 0 0 Z " fill="#F9D223" transform="translate(115,64)"/>
<path d="M0 0 C7.18781726 -0.48730964 7.18781726 -0.48730964 10.8125 1.6875 C12.98925915 3.98864538 14.44257487 6.25596524 16 9 C16.66 9.33 17.32 9.66 18 10 C17.67 10.99 17.34 11.98 17 13 C16.61070312 12.55269531 16.22140625 12.10539062 15.8203125 11.64453125 C11.1449916 6.59216834 6.2800664 3.74200082 0 1 C0 0.67 0 0.34 0 0 Z " fill="#FBEC98" transform="translate(153,20)"/>
<path d="M0 0 C9.07671872 0.83696293 16.45826651 2.70351541 24 8 C24.33 8.66 24.66 9.32 25 10 C19.34775574 8.42496751 14.23743985 6.67443737 9 4 C6.02385133 2.92268337 3.02011365 1.94630228 0 1 C0 0.67 0 0.34 0 0 Z " fill="#FBE585" transform="translate(147,6)"/>
<path d="M0 0 C0 3.96 0 7.92 0 12 C-0.66 12 -1.32 12 -2 12 C-2 8.7 -2 5.4 -2 2 C-8.79707213 0.61541123 -13.52086573 1.64998614 -20 4 C-17.2734375 0.09375 -17.2734375 0.09375 -14.8125 -0.75 C-9.6835429 -1.2059073 -5.0468218 -1.26170545 0 0 Z " fill="#FAF2C1" transform="translate(115,76)"/>
<path d="M0 0 C0 0.66 0 1.32 0 2 C-1.65 2 -3.3 2 -5 2 C-5.33 2.66 -5.66 3.32 -6 4 C-6 3.01 -6 2.02 -6 1 C-6.99 1.495 -6.99 1.495 -8 2 C-10.6723621 2.13415472 -13.32250488 2.04318541 -16 2 C-15 0 -15 0 -13.07421875 -0.66796875 C-12.28660156 -0.83941406 -11.49898438 -1.01085938 -10.6875 -1.1875 C-9.90761719 -1.36667969 -9.12773438 -1.54585937 -8.32421875 -1.73046875 C-5.07989441 -2.10670132 -2.88881323 -1.44440661 0 0 Z " fill="#FACC19" transform="translate(108,13)"/>
<path d="M0 0 C1.051875 0.70576172 1.051875 0.70576172 2.125 1.42578125 C7.63320451 5.04054046 12.72189521 7.98626827 19 10 C19 10.33 19 10.66 19 11 C16.69 11 14.38 11 12 11 C12 10.34 12 9.68 12 9 C10.68 9 9.36 9 8 9 C8 8.34 8 7.68 8 7 C7.236875 6.9175 6.47375 6.835 5.6875 6.75 C2.45284809 5.84730645 1.64900735 4.86406539 0 2 C0 1.34 0 0.68 0 0 Z " fill="#FAEDB1" transform="translate(29,149)"/>
<path d="M0 0 C2.97 0.495 2.97 0.495 6 1 C5.01 1.33 4.02 1.66 3 2 C3 2.66 3 3.32 3 4 C2.34 4 1.68 4 1 4 C0.938125 4.7425 0.87625 5.485 0.8125 6.25 C-0.24185138 9.8185739 -1.99909773 10.92245228 -5 13 C-5.66 12.67 -6.32 12.34 -7 12 C-5.6875 9.0625 -5.6875 9.0625 -4 6 C-3.01 5.67 -2.02 5.34 -1 5 C-0.67 3.35 -0.34 1.7 0 0 Z " fill="#FAD947" transform="translate(138,139)"/>
<path d="M0 0 C2.86469884 2.44607523 3.92891276 4.85481348 5.1875 8.375 C5.53167969 9.31085937 5.87585938 10.24671875 6.23046875 11.2109375 C6.98764758 13.95523031 7.14916724 16.17096621 7 19 C6.34 19.33 5.68 19.66 5 20 C3.35 18.68 1.7 17.36 0 16 C1.98 16.33 3.96 16.66 6 17 C5.38125 15.865625 4.7625 14.73125 4.125 13.5625 C1.90992828 9.17163089 0.8482631 4.82170604 0 0 Z " fill="#F8F1C9" transform="translate(184,29)"/>
<path d="M0 0 C0 0.66 0 1.32 0 2 C-0.60328125 2.26554688 -1.2065625 2.53109375 -1.828125 2.8046875 C-2.62734375 3.15789062 -3.4265625 3.51109375 -4.25 3.875 C-5.03890625 4.22304687 -5.8278125 4.57109375 -6.640625 4.9296875 C-8.97751097 5.95499437 -8.97751097 5.95499437 -11.0625 7.125 C-14.0105626 8.45638311 -16.81680387 8.12243062 -20 8 C-16.64309635 5.76206424 -13.1660716 4.34949662 -9.4375 2.875 C-8.75236328 2.59785156 -8.06722656 2.32070312 -7.36132812 2.03515625 C-2.2533867 0 -2.2533867 0 0 0 Z " fill="#FBEBAD" transform="translate(109,150)"/>
<path d="M0 0 C0.66 0.33 1.32 0.66 2 1 C2.33 6.94 2.66 12.88 3 19 C-0.67790342 13.48314488 -1.39953612 7.52575668 -1 1 C-0.67 0.67 -0.34 0.34 0 0 Z " fill="#F9EDAA" transform="translate(7,123)"/>
<path d="M0 0 C0.99 0.33 1.98 0.66 3 1 C2.2575 1.53625 1.515 2.0725 0.75 2.625 C-5.36415768 7.90540891 -6.8425664 13.29392893 -8 21 C-8.33 21 -8.66 21 -9 21 C-9.22966126 14.33982338 -9.2064999 9.42714989 -4.5 4.25 C-3.675 3.5075 -2.85 2.765 -2 2 C-1.34 1.34 -0.68 0.68 0 0 Z " fill="#FCF5BF" transform="translate(92,80)"/>
<path d="M0 0 C0.99 0.66 1.98 1.32 3 2 C2.64950425 5.24208567 2.43778819 6.61527704 -0.0625 8.8125 C-0.701875 9.204375 -1.34125 9.59625 -2 10 C-2 9.01 -2 8.02 -2 7 C-2.66 6.67 -3.32 6.34 -4 6 C-4 4 -4 4 -2 1.875 C-1.34 1.25625 -0.68 0.6375 0 0 Z " fill="#FBC805" transform="translate(176,24)"/>
<path d="M0 0 C0.77601562 0.15339844 1.55203125 0.30679688 2.3515625 0.46484375 C7.02199468 1.14990714 11.66255085 1.35746477 16.375 1.5625 C17.30183594 1.60568359 18.22867188 1.64886719 19.18359375 1.69335938 C21.45560294 1.79876186 23.72770925 1.90088606 26 2 C26 2.33 26 2.66 26 3 C22.04168191 3.02892857 18.08339083 3.04677427 14.125 3.0625 C12.43310547 3.07506836 12.43310547 3.07506836 10.70703125 3.08789062 C9.63066406 3.09111328 8.55429687 3.09433594 7.4453125 3.09765625 C6.45031738 3.10289307 5.45532227 3.10812988 4.43017578 3.11352539 C2 3 2 3 0 2 C0 1.34 0 0.68 0 0 Z " fill="#F3D23B" transform="translate(44,160)"/>
<path d="M0 0 C1.32 0.33 2.64 0.66 4 1 C4 1.66 4 2.32 4 3 C4.639375 3.268125 5.27875 3.53625 5.9375 3.8125 C8 5 8 5 9 8 C4.53367217 8.36213469 4.53367217 8.36213469 2.25 6.8125 C0.71161002 4.58183452 0.35994553 2.6635969 0 0 Z " fill="#F8E24F" transform="translate(74,106)"/>
<path d="M0 0 C0.33 0.66 0.66 1.32 1 2 C1.66 2 2.32 2 3 2 C2.34 3.32 1.68 4.64 1 6 C-1.16874252 5.49396008 -2.99967627 5.00016187 -5 4 C-5.33 4.99 -5.66 5.98 -6 7 C-6.99 7 -7.98 7 -9 7 C-9 6.34 -9 5.68 -9 5 C-2.25 2 -2.25 2 0 2 C0 1.34 0 0.68 0 0 Z " fill="#F9CF1C" transform="translate(129,139)"/>
<path d="M0 0 C0.33 0.66 0.66 1.32 1 2 C0.34 2 -0.32 2 -1 2 C-1 2.99 -1 3.98 -1 5 C-0.195625 5.28875 0.60875 5.5775 1.4375 5.875 C4 7 4 7 5 9 C0.545 8.01 0.545 8.01 -4 7 C-4 5.68 -4 4.36 -4 3 C-2 1.25 -2 1.25 0 0 Z " fill="#F9EFB7" transform="translate(56,34)"/>
<path d="M0 0 C3.16380276 1.34945873 3.84616735 1.67135751 5.375 4.9375 C7.35284429 8.66497577 9.1550652 9.46202608 13 11 C11 12 11 12 8.1875 11.125 C3.84807895 8.23205263 2.19435231 4.63144271 0 0 Z " fill="#FBF0A9" transform="translate(171,33)"/>
<path d="M0 0 C-1.32 0.33 -2.64 0.66 -4 1 C-4 1.66 -4 2.32 -4 3 C-5.43344 3.53190541 -6.87195367 4.05015258 -8.3125 4.5625 C-9.51326172 4.99755859 -9.51326172 4.99755859 -10.73828125 5.44140625 C-13 6 -13 6 -16 5 C-10.86112099 1.67484299 -6.19845389 -0.36461493 0 0 Z " fill="#FAE88A" transform="translate(116,18)"/>
<path d="M0 0 C-1.74420913 1.32018588 -3.49560091 2.63088602 -5.25 3.9375 C-6.22453125 4.66839844 -7.1990625 5.39929687 -8.203125 6.15234375 C-12.22572025 8.8097286 -12.22572025 8.8097286 -15 9 C-15.66 8.34 -16.32 7.68 -17 7 C-15.63875 6.62875 -15.63875 6.62875 -14.25 6.25 C-10.8236407 4.9321695 -9.50485949 3.58566141 -7 1 C-2.5 -1.25 -2.5 -1.25 0 0 Z " fill="#FBF2C2" transform="translate(78,36)"/>
<path d="M0 0 C0.99 0 1.98 0 3 0 C2 3 2 3 -0.1875 4.625 C-3.17152633 6.08385732 -5.71554694 6.61808685 -9 7 C-9 6.34 -9 5.68 -9 5 C-8.43410156 4.72285156 -7.86820312 4.44570312 -7.28515625 4.16015625 C-6.55167969 3.79792969 -5.81820312 3.43570313 -5.0625 3.0625 C-3.96615234 2.52302734 -3.96615234 2.52302734 -2.84765625 1.97265625 C-1.03750973 1.13628173 -1.03750973 1.13628173 0 0 Z " fill="#FCEA89" transform="translate(109,107)"/>
<path d="M0 0 C1.29456734 2.58913468 0.93282201 4.13808725 0.625 7 C0.53476563 7.886875 0.44453125 8.77375 0.3515625 9.6875 C0 12 0 12 -1 14 C-1.66 13.67 -2.32 13.34 -3 13 C-3.31563182 7.73946963 -2.66590937 4.55426184 0 0 Z " fill="#FBDB34" transform="translate(83,91)"/>
<path d="M0 0 C-0.6875 2.4375 -0.6875 2.4375 -2 5 C-4.3125 5.75 -4.3125 5.75 -7 6 C-7.928125 6.185625 -8.85625 6.37125 -9.8125 6.5625 C-10.534375 6.706875 -11.25625 6.85125 -12 7 C-9.20232475 3.70861735 -4.40323273 0 0 0 Z " fill="#FAE38B" transform="translate(82,18)"/>
<path d="M0 0 C-1.33333333 0.66666667 -2.66666667 1.33333333 -4 2 C-4.886875 2.515625 -5.77375 3.03125 -6.6875 3.5625 C-10.79388706 5.34451703 -14.5689247 5.71444181 -19 6 C-16.53908406 3.53908406 -14.481204 2.97154757 -11.1875 1.875 C-10.14980469 1.52179687 -9.11210938 1.16859375 -8.04296875 0.8046875 C-5.19514399 0.05160419 -2.92424374 -0.16215769 0 0 Z " fill="#F9EFC8" transform="translate(112,7)"/>
<path d="M0 0 C0.66 1.32 1.32 2.64 2 4 C-1.08809695 5.76462683 -2.23312136 6 -6 6 C-4.95125002 3.37812506 -4.35068687 2.20628639 -1.875 0.75 C-1.25625 0.5025 -0.6375 0.255 0 0 Z " fill="#F8C70E" transform="translate(185,34)"/>
<path d="M0 0 C0.99 0.33 1.98 0.66 3 1 C0.03 3.64 -2.94 6.28 -6 9 C-6.66 8.67 -7.32 8.34 -8 8 C-7.67 7.01 -7.34 6.02 -7 5 C-6.34 5 -5.68 5 -5 5 C-5 4.34 -5 3.68 -5 3 C-4.360625 2.87625 -3.72125 2.7525 -3.0625 2.625 C-2.0415625 2.315625 -2.0415625 2.315625 -1 2 C-0.67 1.34 -0.34 0.68 0 0 Z " fill="#FAE99D" transform="translate(146,138)"/>
<path d="M0 0 C0.66 0.33 1.32 0.66 2 1 C1.59007813 1.47050781 1.18015625 1.94101563 0.7578125 2.42578125 C-0.05042969 3.35970703 -0.05042969 3.35970703 -0.875 4.3125 C-1.40867187 4.92738281 -1.94234375 5.54226562 -2.4921875 6.17578125 C-4.1640447 8.13498212 -4.1640447 8.13498212 -6 11 C-6.99 10.67 -7.98 10.34 -9 10 C-8.34 9.67 -7.68 9.34 -7 9 C-7 8.01 -7 7.02 -7 6 C-5.35666496 4.96210419 -3.68756133 3.96432076 -2 3 C-1.34 2.01 -0.68 1.02 0 0 Z " fill="#F8D829" transform="translate(122,93)"/>
<path d="M0 0 C1.32 0.66 2.64 1.32 4 2 C2.22510401 4.24197388 1.37824511 4.94326323 -1.5 5.375 C-4.37824511 4.94326323 -5.22510401 4.24197388 -7 2 C-3.25 0.875 -3.25 0.875 -1 2 C-0.67 1.34 -0.34 0.68 0 0 Z " fill="#F9D726" transform="translate(65,38)"/>
<path d="M0 0 C-0.99 0.33 -1.98 0.66 -3 1 C-3 2.32 -3 3.64 -3 5 C-4.32 5.33 -5.64 5.66 -7 6 C-7 5.34 -7 4.68 -7 4 C-8.32 3.67 -9.64 3.34 -11 3 C-9.73581754 2.30034557 -8.46334598 1.61565237 -7.1875 0.9375 C-6.47980469 0.55464844 -5.77210937 0.17179688 -5.04296875 -0.22265625 C-3 -1 -3 -1 0 0 Z " fill="#F9E386" transform="translate(93,14)"/>
<path d="M0 0 C-3.46747828 2.77398263 -7.06402511 4.95912413 -11 7 C-11.66 6.67 -12.32 6.34 -13 6 C-5.7447644 -0.15117801 -5.7447644 -0.15117801 0 0 Z " fill="#FCEFAC" transform="translate(91,28)"/>
<path d="M0 0 C0.33 0 0.66 0 1 0 C0.38273804 5.67355671 -0.27945952 11.33861055 -1 17 C-1.33 17 -1.66 17 -2 17 C-2.05418326 14.91695462 -2.09287551 12.83350232 -2.125 10.75 C-2.14820312 9.58984375 -2.17140625 8.4296875 -2.1953125 7.234375 C-2.0103949 4.17213954 -1.60823023 2.55797249 0 0 Z " fill="#FCEB8F" transform="translate(73,84)"/>
<path d="M0 0 C3.63 0 7.26 0 11 0 C10.01 1.485 10.01 1.485 9 3 C6.03 2.67 3.06 2.34 0 2 C0 1.34 0 0.68 0 0 Z " fill="#FBE782" transform="translate(144,17)"/>
<path d="M0 0 C-2.02196167 2.02196167 -3.25864486 2.67551358 -5.875 3.6875 C-6.89207031 4.09548828 -6.89207031 4.09548828 -7.9296875 4.51171875 C-10.31107782 5.07336741 -11.70430191 4.76694846 -14 4 C-9.22642128 1.28608722 -5.65611463 -0.56561146 0 0 Z " fill="#FAEFB1" transform="translate(107,165)"/>
<path d="M0 0 C3.81684226 1.55500981 6.19195732 4.03595495 9 7 C8.67 7.66 8.34 8.32 8 9 C5.03 8.505 5.03 8.505 2 8 C2.66 7.34 3.32 6.68 4 6 C2.68 4.02 1.36 2.04 0 0 Z " fill="#F8E89E" transform="translate(172,16)"/>
<path d="M0 0 C5.75 1.625 5.75 1.625 8 5 C7.67 5.99 7.34 6.98 7 8 C6.34 7.67 5.68 7.34 5 7 C5 6.01 5 5.02 5 4 C4.360625 3.71125 3.72125 3.4225 3.0625 3.125 C1 2 1 2 0 0 Z " fill="#FAD935" transform="translate(166,26)"/>
<path d="M0 0 C3.86107457 2.57404971 3.94319692 4.61020259 5 9 C4.34 9.66 3.68 10.32 3 11 C2.01 10.67 1.02 10.34 0 10 C0.33 9.67 0.66 9.34 1 9 C1.14636054 5.63370749 1.07193479 3.21580438 0 0 Z " fill="#F9DC5E" transform="translate(181,25)"/>
<path d="M0 0 C1.9375 0.8125 1.9375 0.8125 4 2 C4.33 2.99 4.66 3.98 5 5 C3.02 5 1.04 5 -1 5 C-0.67 3.35 -0.34 1.7 0 0 Z " fill="#FAD123" transform="translate(25,147)"/>
<path d="M0 0 C2.97 0.495 2.97 0.495 6 1 C6 1.66 6 2.32 6 3 C6.66 3 7.32 3 8 3 C8 3.66 8 4.32 8 5 C8.66 5.33 9.32 5.66 10 6 C6.33118845 5.29445932 3.29549466 3.72264494 0 2 C0 1.34 0 0.68 0 0 Z " fill="#F8D92D" transform="translate(177,39)"/>
<path d="M0 0 C0 0.99 0 1.98 0 3 C-1.11375 3.433125 -1.11375 3.433125 -2.25 3.875 C-4.56739797 4.82302644 -6.77917115 5.84845911 -9 7 C-8.25675659 4.60510457 -7.52942646 3.29222384 -5.30859375 2.06640625 C-3.55926499 1.32780077 -1.78065851 0.65950315 0 0 Z " fill="#FCD327" transform="translate(77,22)"/>
<path d="M0 0 C-2.6855594 2.6855594 -5.37621328 3.06049974 -9 4 C-8.67 3.01 -8.34 2.02 -8 1 C-5.29120665 -0.35439668 -2.99066732 -0.06501451 0 0 Z " fill="#FDF0AA" transform="translate(100,24)"/>
<path d="M0 0 C5.875 3.625 5.875 3.625 7 7 C4.625 6.3125 4.625 6.3125 2 5 C0.6875 2.375 0.6875 2.375 0 0 Z " fill="#F8E58D" transform="translate(29,149)"/>
</svg>
